<svg fill="none" height="800" viewBox="0 0 24 24" width="800" xmlns="http://www.w3.org/2000/svg"><path d="m0 0h24v24h-24z" fill="#fff"/><path clip-rule="evenodd" d="m2 12c0-5.52285 4.47715-10 10-10 5.5228 0 10 4.47715 10 10 0 5.5228-4.4772 10-10 10-5.52285 0-10-4.4772-10-10zm11-4c0-.55228-.4477-1-1-1s-1 .44772-1 1v5.5858l-1.29289-1.2929c-.39053-.3905-1.02369-.3905-1.41422 0-.39052.3905-.39052 1.0237 0 1.4142l2.91301 2.913c.015.015.0304.0296.0461.0436.1832.2063.4504.3363.748.3363s.5648-.13.748-.3363c.0157-.014.0311-.0286.0461-.0436l2.913-2.913c.3905-.3905.3905-1.0237 0-1.4142s-1.0237-.3905-1.4142 0l-1.2929 1.2929z" fill="#323232" fill-rule="evenodd"/></svg>