<svg height="800pt" preserveAspectRatio="xMidYMid meet" viewBox="0 0 800 800" width="800pt" xmlns="http://www.w3.org/2000/svg"><g transform="matrix(.1 0 0 -.1 0 800)"><path d="m3675 7315c-463-43-940-196-1340-430-941-549-1555-1508-1650-2575-70-782 122-1534 553-2169 381-563 910-988 1545-1242 758-304 1676-304 2434 0 635 254 1164 679 1545 1242 315 464 502 989 553 1549 70 780-122 1534-553 2169-381 563-910 988-1545 1242-466 187-1013 263-1542 214zm651-671c422-49 802-192 1169-437 258-173 535-448 705-702 314-467 462-950 462-1505s-148-1039-462-1505c-171-254-448-530-705-702-462-309-944-455-1495-455s-1033 146-1495 455c-257 172-534 448-705 702-314 466-462 950-462 1505s148 1038 462 1505c170 254 447 529 705 702 422 282 848 424 1375 457 91 6 317-4 446-20z"/><path d="m3924 5656c-73-18-138-59-184-117-73-93-70-42-70-1106 0-524-3-953-8-953-4 0-106 99-227 220-121 122-240 234-265 249-219 139-512-34-498-294 7-141-3-128 590-722 353-353 546-540 577-556 103-55 219-55 322 0 31 16 223 202 576 556 606 607 587 583 588 732 0 72-4 99-22 137-30 66-92 129-160 164-51 25-69 29-143 29-133 0-146-10-420-281-130-129-239-234-243-234s-7 429-7 953c0 1064 3 1013-70 1106-47 59-111 99-189 117-67 16-80 16-147 0z"/></g></svg>