<svg viewBox="0 0 512 512" xmlns="http://www.w3.org/2000/svg"><path d="m243.4 2.6-224 96c-14 6-21.8 21-18.7 35.8s16.1 25.6 31.3 25.6v8c0 13.3 10.7 24 24 24h400c13.3 0 24-10.7 24-24v-8c15.2 0 28.3-10.7 31.3-25.6s-4.8-29.9-18.7-35.8l-224-96c-8-3.4-17.2-3.4-25.2 0zm-115.4 221.4h-64v196.3c-.6.3-1.2.7-1.8 1.1l-48 32c-11.7 7.8-17 22.4-12.9 35.9s16.6 22.7 30.7 22.7h448c14.1 0 26.5-9.2 30.6-22.7s-1.1-28.1-12.9-35.9l-48-32c-.6-.4-1.2-.7-1.8-1.1v-196.3h-63.9v192h-40v-192h-64v192h-48v-192h-64v192h-40zm128-160a32 32 0 1 1 0 64 32 32 0 1 1 0-64z"/></svg>