<svg height="800" viewBox="0 0 24 24" width="800" xmlns="http://www.w3.org/2000/svg"><path d="m20 5a2.984 2.984 0 0 0 -1.116.22 2.961 2.961 0 0 0 -4.355-1.82 2.983 2.983 0 0 0 -5.058 0 2.967 2.967 0 0 0 -1.471-.4 3 3 0 0 0 -3 3v1.1a5.009 5.009 0 0 0 -4 4.9v1a9.01 9.01 0 0 0 9 9h4a9.01 9.01 0 0 0 9-9v-5a3 3 0 0 0 -3-3zm1 8a7.009 7.009 0 0 1 -7 7h-4a7.009 7.009 0 0 1 -7-7v-1a3.006 3.006 0 0 1 2-2.829v.829a1 1 0 0 0 2 0v-4a1 1 0 0 1 2 0v3a1 1 0 0 0 2 0v-4a1 1 0 0 1 2 0v4a1 1 0 0 0 2 0v-3a1 1 0 0 1 2 0v3a1 1 0 0 0 2 0v-1a1 1 0 0 1 2 0z"/></svg>