<svg fill="none" height="800" viewBox="0 0 24 24" width="800" xmlns="http://www.w3.org/2000/svg"><g fill="#1c274c"><path clip-rule="evenodd" d="m2 5.75c0-.41421.33579-.75.75-.75h18c.4142 0 .75.33579.75.75s-.3358.75-.75.75h-18c-.41421 0-.75-.33579-.75-.75zm0 4c0-.41421.33579-.75.75-.75h18c.4142 0 .75.33579.75.75 0 .4142-.3358.75-.75.75h-18c-.41421 0-.75-.3358-.75-.75zm0 4c0-.4142.33579-.75.75-.75h7c.4142 0 .75.3358.75.75s-.3358.75-.75.75h-7c-.41421 0-.75-.3358-.75-.75zm0 4c0-.4142.33579-.75.75-.75h7c.4142 0 .75.3358.75.75s-.3358.75-.75.75h-7c-.41421 0-.75-.3358-.75-.75z" fill-rule="evenodd" opacity=".5"/><path d="m20.2113 12.6587c.3266.2547.3848.726.1301 1.0526l-3.9 5c-.1392.1785-.3515.2845-.5778.2886s-.4423-.0942-.5879-.2675l-2.1-2.5c-.2664-.3171-.2252-.7902.0919-1.0566.3172-.2665.7903-.2253 1.0567.0918l1.5041 1.7907 3.3302-4.2695c.2548-.3266.7261-.3849 1.0527-.1301z"/></g></svg>