<svg height="800" viewBox="0 0 1000 1000" width="800" xmlns="http://www.w3.org/2000/svg"><g fill="none" stroke="#020202" stroke-linecap="round" stroke-miterlimit="10" stroke-width="22"><path d="m683.86 302.94h47.76a72.79 72.79 0 0 1 72.57 72.57v249a72.79 72.79 0 0 1 -72.57 72.57h-47.76"/><path d="m316.14 697.06h-47.76a72.79 72.79 0 0 1 -72.57-72.57v-249a72.79 72.79 0 0 1 72.57-72.57h47.76"/><path d="m284.13 380.08v30.08h431.74v-30.08"/><path d="m284.13 619.92h431.74"/><path d="m317.07 410.16v-162.16a35.26 35.26 0 0 1 35.15-35.15h295.56a35.26 35.26 0 0 1 35.15 35.15v162.16"/><path d="m682.93 619.92v132.08a35.26 35.26 0 0 1 -35.15 35.15h-295.56a35.26 35.26 0 0 1 -35.15-35.15v-132.08"/><path d="m632.71 702.67h-60.47"/><path d="m500.93 702.67h-131.77"/></g><circle cx="572.23" cy="473.4" fill="#020202" r="17.9"/><circle cx="632.71" cy="473.4" fill="#020202" r="17.9"/><circle cx="693.18" cy="473.4" fill="#020202" r="17.9"/></svg>