<svg height="800" viewBox="0 0 1024 1024" width="800" xmlns="http://www.w3.org/2000/svg"><path d="m511.28 0c-255.808 0-463.92 208.126-463.92 463.934 0 240.448 185.296 441.536 423.568 462.096l-91.856 46.56c-11.344 6.223-18.096 20.223-11.376 31.279l3.248 8.4c6.752 11.056 21.376 14.976 32.687 8.783l153.312-78.496c.193-.128.4-.095.593-.223l10.288-5.632c5.68-3.12 9.44-8.224 10.943-13.903 1.569-5.68.85-12-2.527-17.504l-6.096-10c-.095-.193-.288-.32-.4-.496l-94.689-147.968c-6.72-11.056-21.311-14.976-32.687-8.784l-7.44 5.184c-11.344 6.192-12.096 22.192-5.376 33.217l55.872 86.672c-.304-.016-.576-.128-.865-.144-209.28-13.727-373.2-189.039-373.2-399.039.001-220.528 179.408-399.936 399.921-399.936 220.544 0 400.96 179.408 400.96 399.937 0 126.976-58.32 243.6-160 319.968-14.127 10.624-16.975 30.689-6.367 44.817 10.624 14.16 30.689 16.976 44.817 6.368 117.936-88.592 185.567-223.872 185.567-371.152-.017-255.809-209.152-463.938-464.977-463.938z"/></svg>